<svg width="487" height="211" viewBox="0 0 487 211" fill="none" xmlns="http://www.w3.org/2000/svg">
<path d="M0 0.241574L15.6556 0.328451L70.7595 205.979L56.4915 209.802L0 0.241574Z" fill="black"/>
<path d="M146.467 3.98636L161.052 0.0782798L216.68 209.637H201.571L146.467 3.98636Z" fill="black"/>
<path d="M187.613 0.0782813L201.821 0.0783203L257.827 209.637L242.34 209.637L187.613 0.0782813Z" fill="black"/>
<path d="M328.418 0.211453L344.081 0.327156L400.091 209.885L385.019 209.773L328.418 0.211453Z" fill="black"/>
<path d="M357.354 100.224L368.031 89.5465L486.964 210.231H467.362L357.354 100.224Z" fill="black"/>
<path d="M111.728 0.0782826L126.837 0.0783017L71.2089 209.637H56.6238L111.728 0.0782826Z" fill="black"/>
<path d="M146.457 0.0782837L161.189 0.0782842L105.938 209.637H90.2205L146.457 0.0782837Z" fill="black"/>
<path d="M119.84 105H186.84V120H119.84V105Z" fill="black"/>
<path d="M315.84 53C315.84 82.2711 292.111 106 262.84 106C233.569 106 209.84 82.2711 209.84 53C209.84 23.7289 233.569 0 262.84 0C292.111 0 315.84 23.7289 315.84 53ZM225.218 53C225.218 73.7781 242.062 90.6221 262.84 90.6221C283.618 90.6221 300.462 73.7781 300.462 53C300.462 32.2219 283.618 15.3779 262.84 15.3779C242.062 15.3779 225.218 32.2219 225.218 53Z" fill="black"/>
<path d="M359.84 158C359.84 187.271 336.335 211 307.34 211C278.345 211 254.84 187.271 254.84 158C254.84 128.729 278.345 105 307.34 105C336.335 105 359.84 128.729 359.84 158ZM269.843 158C269.843 178.906 286.631 195.854 307.34 195.854C328.049 195.854 344.836 178.906 344.836 158C344.836 137.094 328.049 120.146 307.34 120.146C286.631 120.146 269.843 137.094 269.843 158Z" fill="black"/>
<path d="M451.84 53C451.84 82.2711 428.335 106 399.34 106C370.345 106 346.84 82.2711 346.84 53C346.84 23.7289 370.345 0 399.34 0C428.335 0 451.84 23.7289 451.84 53ZM362.486 53C362.486 73.5478 378.986 90.2051 399.34 90.2051C419.694 90.2051 436.194 73.5478 436.194 53C436.194 32.4522 419.694 15.7949 399.34 15.7949C378.986 15.7949 362.486 32.4522 362.486 53Z" fill="black"/>
</svg>
