<svg width="645" height="279" viewBox="0 0 645 279" fill="none" xmlns="http://www.w3.org/2000/svg">
<path d="M0 0.216268L20.7364 0.331341L93.7233 272.722L74.8249 277.786L0 0.216268Z" fill="white"/>
<path d="M194 5.17637L213.319 -9.64302e-06L287 277.567H266.987L194 5.17637Z" fill="white"/>
<path d="M248.5 -4.22394e-06L267.319 4.7592e-05L341.5 277.568L320.987 277.568L248.5 -4.22394e-06Z" fill="white"/>
<path d="M435 0.176367L455.747 0.32962L529.933 277.896L509.971 277.748L435 0.176367Z" fill="white"/>
<path d="M473.327 132.646L487.469 118.504L645 278.354H619.036L473.327 132.646Z" fill="white"/>
<path d="M147.987 -3.05176e-05L168 -5.1832e-06L94.3185 277.567H75L147.987 -3.05176e-05Z" fill="white"/>
<path d="M193.987 -1.85482e-06L213.5 -1.20351e-06L140.319 277.567H119.5L193.987 -1.85482e-06Z" fill="white"/>
<path d="M159 139H248V159H159V139Z" fill="white"/>
<path d="M418 70C418 108.66 386.66 140 348 140C309.34 140 278 108.66 278 70C278 31.3401 309.34 -5.11307e-06 348 -5.11307e-06C386.66 -5.11307e-06 418 31.3401 418 70ZM298.31 70C298.31 97.4428 320.557 119.69 348 119.69C375.443 119.69 397.69 97.4428 397.69 70C397.69 42.5572 375.443 20.3104 348 20.3104C320.557 20.3104 298.31 42.5572 298.31 70Z" fill="white"/>
<path d="M477 209C477 247.66 445.66 279 407 279C368.34 279 337 247.66 337 209C337 170.34 368.34 139 407 139C445.66 139 477 170.34 477 209ZM357.005 209C357.005 236.612 379.388 258.995 407 258.995C434.612 258.995 456.995 236.612 456.995 209C456.995 181.388 434.612 159.005 407 159.005C379.388 159.005 357.005 181.388 357.005 209Z" fill="white"/>
<path d="M599 70.1764C599 108.836 567.66 140.176 529 140.176C490.34 140.176 459 108.836 459 70.1764C459 31.5164 490.34 0.176371 529 0.176371C567.66 0.176371 599 31.5164 599 70.1764ZM479.861 70.1764C479.861 97.315 501.861 119.315 529 119.315C556.139 119.315 578.139 97.315 578.139 70.1764C578.139 43.0377 556.139 21.0375 529 21.0375C501.861 21.0375 479.861 43.0377 479.861 70.1764Z" fill="white"/>
</svg>
